{
	"asset":{
		"version":"2.0",
		"generator":"Houdini GLTF 2.0 Exporter"
	},
	"accessors":[
		{
			"bufferView":0,
			"componentType":5123,
			"count":168,
			"type":"SCALAR",
			"min":[0
			],
			"max":[29
			]
		},
		{
			"bufferView":1,
			"componentType":5126,
			"count":30,
			"type":"VEC3",
			"min":[-0.214218095,-0.25,-0.231802896
			],
			"max":[0.237764135,0.25,0.231802896
			]
		},
		{
			"bufferView":2,
			"componentType":5126,
			"count":30,
			"type":"VEC3",
			"min":[1,0,0
			],
			"max":[1,0,0
			]
		},
		{
			"bufferView":3,
			"componentType":5126,
			"count":30,
			"type":"VEC3",
			"min":[-0.863210201,-1,-0.934069633
			],
			"max":[0.958091021,1,0.934069633
			]
		}
	],
	"buffers":[
		{
			"uri":"OriginMarker_data.bin",
			"byteLength":1416,
			"name":"main_buffer"
		}
	],
	"bufferViews":[
		{
			"buffer":0,
			"byteLength":336,
			"target":34963
		},
		{
			"buffer":0,
			"byteOffset":336,
			"byteLength":360,
			"target":34962
		},
		{
			"buffer":0,
			"byteOffset":696,
			"byteLength":360,
			"target":34962
		},
		{
			"buffer":0,
			"byteOffset":1056,
			"byteLength":360,
			"target":34962
		}
	],
	"nodes":[
		{
			"name":"geo1",
			"mesh":0
		}
	],
	"meshes":[
		{
			"primitives":[
				{
					"attributes":{
						"COLOR_0":2,
						"POSITION":1,
						"NORMAL":3
					},
					"indices":0
				}
			],
			"name":"normal1"
		}
	],
	"scenes":[
		{
			"nodes":[0
			]
		}
	],
	"scene":0
}
